<?xml version="1.0" standalone="no"?>
<!DOCTYPE svg PUBLIC "-//W3C//DTD SVG 20010904//EN"
 "http://www.w3.org/TR/2001/REC-SVG-20010904/DTD/svg10.dtd">
<svg version="1.0" xmlns="http://www.w3.org/2000/svg"
 width="132.000000pt" height="52.000000pt" viewBox="0 0 132.000000 52.000000"
 preserveAspectRatio="xMidYMid meet">
<metadata>
Created by potrace 1.10, written by Peter Selinger 2001-2011
</metadata>
<g transform="translate(0.000000,52.000000) scale(0.100000,-0.100000)"
fill="#baf553" stroke="none">
<path d="M634 480 c-28 -11 -37 -26 -27 -42 9 -16 5 -49 -9 -65 -6 -8 -33 -13
-64 -13 -79 0 -85 -10 -83 -141 1 -72 -3 -114 -11 -123 -6 -8 -10 -25 -8 -38
l3 -23 225 0 225 0 3 28 c2 16 -2 29 -10 32 -10 4 -12 30 -10 116 5 135 -3
149 -83 149 -30 0 -57 5 -63 13 -14 17 -18 49 -8 65 17 28 -41 58 -80 42z m57
-20 c5 0 9 -7 9 -15 0 -11 -11 -15 -40 -15 -28 0 -40 4 -40 14 0 15 26 26 48
20 8 -2 18 -4 23 -4z m-8 -57 c-13 -2 -33 -2 -45 0 -13 2 -3 4 22 4 25 0 35
-2 23 -4z m45 -56 c41 -42 47 -97 14 -129 -21 -21 -22 -21 -41 -4 -14 13 -38
19 -80 20 l-61 1 0 40 c0 30 7 46 32 72 44 46 92 46 136 0z m-173 -17 c-3 -5
-22 -10 -41 -10 l-36 0 4 -110 c1 -61 0 -110 -4 -110 -10 0 -11 224 -1 233 11
11 85 8 78 -3z m293 -115 c1 -65 -1 -116 -5 -112 -4 4 -6 52 -5 107 1 82 -1
101 -15 108 -9 5 -24 7 -33 5 -10 -3 -21 0 -25 7 -5 8 6 10 37 8 l43 -3 3
-120z m-305 49 c3 -33 -1 -59 -15 -91 -11 -24 -18 -49 -16 -55 2 -6 14 12 26
40 25 57 51 77 85 65 22 -8 32 -10 55 -12 6 0 12 -8 12 -16 0 -10 -11 -15 -35
-15 -19 0 -35 -4 -35 -10 0 -15 66 -12 79 4 7 8 23 17 36 20 14 4 25 11 25 16
0 6 7 10 15 10 8 0 15 -6 15 -13 0 -24 -44 -55 -95 -68 -27 -6 -55 -18 -61
-26 -9 -10 -29 -13 -70 -11 l-59 3 -3 103 c-2 95 -1 102 16 102 16 0 20 -9 25
-46z m277 -59 l0 -105 -92 0 c-93 1 -102 10 -24 24 49 9 80 29 95 62 10 22 9
30 -4 44 -8 9 -15 31 -15 48 0 25 4 32 20 32 19 0 20 -7 20 -105z m-225 -136
c12 -12 118 -12 130 0 6 5 39 11 75 13 55 3 65 0 68 -14 3 -17 -12 -18 -207
-18 -177 0 -211 2 -211 14 0 23 120 27 145 5z m119 10 c-7 -12 -101 -11 -109
1 -4 6 16 10 54 9 33 -1 58 -6 55 -10z"/>
<path d="M652 348 c-17 -17 -15 -39 5 -54 10 -7 14 -16 10 -20 -4 -5 -12 -2
-17 6 -8 13 -10 13 -10 -1 0 -9 6 -21 13 -27 10 -8 16 -6 26 10 12 19 11 24
-8 39 -12 10 -17 20 -12 23 5 4 11 0 14 -6 2 -7 8 -10 12 -6 4 4 1 16 -7 27
-11 16 -17 18 -26 9z"/>
<path d="M710 249 c0 -5 5 -7 10 -4 6 3 10 8 10 11 0 2 -4 4 -10 4 -5 0 -10
-5 -10 -11z"/>
<path d="M570 436 c0 -9 5 -16 10 -16 6 0 10 4 10 9 0 6 -4 13 -10 16 -5 3
-10 -1 -10 -9z"/>
<path d="M736 441 c-4 -7 -5 -15 -2 -18 9 -9 19 4 14 18 -4 11 -6 11 -12 0z"/>
<path d="M520 432 c0 -15 38 -44 43 -34 4 4 -3 16 -14 25 -21 19 -29 21 -29 9z"/>
<path d="M773 425 c-21 -24 -15 -40 7 -20 20 18 26 35 13 35 -5 -1 -14 -7 -20
-15z"/>
<path d="M510 380 c19 -13 30 -13 30 0 0 6 -10 10 -22 10 -19 0 -20 -2 -8 -10z"/>
<path d="M780 380 c0 -13 11 -13 30 0 12 8 11 10 -7 10 -13 0 -23 -4 -23 -10z"/>
</g>
</svg>
